HIERARCHY
ROOT Hips
{
	OFFSET -3.958830 18.904000 13.208200
	CHANNELS 6 Xposition Yposition Zposition Zrotation Yrotation Xrotation 
	JOINT LHipJoint
	{
		OFFSET 0.000000 0.000000 0.000000
		CHANNELS 3 Zrotation Yrotation Xrotation
		JOINT LeftUpLeg
		{
			OFFSET 1.800000 -1.400000 0.085000
			CHANNELS 3 Zrotation Yrotation Xrotation
			JOINT LeftLeg
			{
				OFFSET 2.215000 -6.000000 0.000000
				CHANNELS 3 Zrotation Yrotation Xrotation
				JOINT LeftFoot
				{
					OFFSET 2.500000 -6.900000 0.000000
					CHANNELS 3 Zrotation Yrotation Xrotation
					JOINT LeftToeBase
					{
						OFFSET 0.200000 -0.500000 1.950000
						CHANNELS 3 Zrotation Yrotation Xrotation
						End Site
						{
							OFFSET 0.000000 0.000000 0.000000
						}
					}
				}
			}
		}
	}
	JOINT RHipJoint
	{
		OFFSET 0.000000 0.000000 0.000000
		CHANNELS 3 Zrotation Yrotation Xrotation
		JOINT RightUpLeg
		{
			OFFSET -1.800000 -1.400000 0.085000
			CHANNELS 3 Zrotation Yrotation Xrotation
			JOINT RightLeg
			{
				OFFSET -2.215000 -6.000000 0.000000
				CHANNELS 3 Zrotation Yrotation Xrotation
				JOINT RightFoot
				{
					OFFSET -2.500000 -6.900000 0.000000
					CHANNELS 3 Zrotation Yrotation Xrotation
					JOINT RightToeBase
					{
						OFFSET -0.200000 -0.500000 1.950000
						CHANNELS 3 Zrotation Yrotation Xrotation
						End Site
						{
							OFFSET 0.000000 0.000000 0.000000
						}
					}
				}
			}
		}
	}
	JOINT LowerBack
	{
		OFFSET 0.000000 0.000000 0.000000
		CHANNELS 3 Zrotation Yrotation Xrotation
		JOINT Spine
		{
			OFFSET -0.087000 1.940000 -0.288900
			CHANNELS 3 Zrotation Yrotation Xrotation
			JOINT Spine1
			{
				OFFSET 0.000000 1.950000 0.060000
				CHANNELS 3 Zrotation Yrotation Xrotation
				JOINT Neck
				{
					OFFSET 0.000000 0.000000 0.000000
					CHANNELS 3 Zrotation Yrotation Xrotation
					JOINT Neck1
					{
						OFFSET 0.000000 1.600000 0.340000
						CHANNELS 3 Zrotation Yrotation Xrotation
						JOINT Head
						{
							OFFSET 0.000000 1.667000 -0.240000
							CHANNELS 3 Zrotation Yrotation Xrotation
							End Site
							{
								OFFSET 0.000000 0.000000 0.000000
							}
						}
					}
				}
				JOINT LeftShoulder
				{
					OFFSET 0.000000 0.000000 0.000000
					CHANNELS 3 Zrotation Yrotation Xrotation
					JOINT LeftArm
					{
						OFFSET 2.700000 1.550000 -0.730000
						CHANNELS 3 Zrotation Yrotation Xrotation
						JOINT LeftForeArm
						{
							OFFSET 5.450000 0.000000 0.000000
							CHANNELS 3 Zrotation Yrotation Xrotation
							JOINT LeftHand
							{
								OFFSET 3.450000 0.000000 0.000000
								CHANNELS 3 Zrotation Yrotation Xrotation
								JOINT LeftHandIndex1
								{
									OFFSET 0.750000 0.000000 0.000000
									CHANNELS 3 Zrotation Yrotation Xrotation
									End Site
									{
										OFFSET 0.000000 0.000000 0.000000
									}
								}
							}
						}
					}
				}
				JOINT RightShoulder
				{
					OFFSET 0.000000 0.000000 0.000000
					CHANNELS 3 Zrotation Yrotation Xrotation
					JOINT RightArm
					{
						OFFSET -2.700000 1.550000 -0.730000
						CHANNELS 3 Zrotation Yrotation Xrotation
						JOINT RightForeArm
						{
							OFFSET -5.450000 0.000000 0.000000
							CHANNELS 3 Zrotation Yrotation Xrotation
							JOINT RightHand
							{
								OFFSET -3.450000 0.000000 0.000000
								CHANNELS 3 Zrotation Yrotation Xrotation
								JOINT RightHandIndex1
								{
									OFFSET -0.750000 0.000000 0.000000
									CHANNELS 3 Zrotation Yrotation Xrotation
									End Site
									{
										OFFSET 0.000000 0.000000 0.000000
									}
								}
							}
						}
					}
				}
			}
		}
	}
}
MOTION
Frames: 7
Frame Time: 0.016667
1.878840 16.800150 -5.606370 6.439914 -61.010570 -21.580657 -15.555687 10.498990 7.021306 33.115972 -4.900048 -32.031843 -52.642463 29.644033 34.928202 1.933096 12.767026 0.268815 1.086620 0.869640 0.735380 18.330784 -9.602356 1.556360 -9.423688 -3.203049 20.763818 -4.144932 -6.675524 25.526051 -1.693423 -6.373633 2.237337 0.244790 -0.298520 0.395170 -3.052826 -2.108035 -8.992860 -9.229728 -0.067295 38.454511 -11.641184 3.660100 3.363091 4.264828 -11.468295 -14.880858 -40.639048 28.802450 26.944571 -2.725990 13.754700 -32.173970 -13.388408 -2.597467 3.516147 -20.946588 3.627429 -5.816197 -84.624378 -49.798976 36.353742 -2.877901 3.782778 0.949560 -0.453400 0.674410 0.430930 5.766093 10.842847 7.881896 -9.631155 -33.037763 -2.089584 -19.607739 44.010900 -4.028796 2.232270 -1.930257 0.214260 0.110340 -0.479470 -0.094460 
1.918070 16.779200 -5.651280 7.592144 -60.834846 -23.664583 -15.543008 10.520337 7.033042 33.524241 -5.178460 -31.778674 -53.134719 30.671875 36.144951 2.041948 12.969087 0.246855 1.049550 0.841240 0.696130 18.353723 -9.537441 1.503625 -9.892263 -3.229168 21.370996 -4.253390 -6.774404 25.886197 -1.690479 -6.468542 2.229317 0.218680 -0.268210 0.395840 -2.847256 -2.378642 -9.021253 -11.822289 0.548975 40.746414 -10.523793 3.738689 3.064099 4.531361 -11.712395 -14.959345 -40.547298 28.125898 25.474405 -3.916200 13.528940 -31.224190 -13.067823 -2.709885 3.529005 -19.939544 3.557674 -5.834852 -87.075647 -49.663849 37.667077 -2.895151 3.798172 0.908380 -0.426370 0.653360 0.442120 5.118699 11.564859 8.090074 -10.772481 -33.273881 -1.672495 -17.736588 44.517226 -3.529671 2.235262 -1.965745 0.221370 0.109470 -0.472420 -0.070470 
2.011190 16.745680 -5.720990 6.147403 -61.015568 -24.797020 -15.544014 10.319796 7.191584 36.182943 -4.931227 -31.217645 -54.401914 31.215457 36.496840 2.097442 13.104103 0.222976 1.025730 0.833870 0.672660 18.387249 -9.544706 1.502411 -9.600542 -3.594209 22.186180 -4.306072 -6.994403 27.238575 -1.731831 -6.653304 2.177723 0.209120 -0.257160 0.395590 -3.044470 -2.018604 -9.075688 -12.505770 0.148694 46.008545 -10.906046 3.290827 3.140389 4.874157 -12.263702 -15.103676 -40.027538 27.044496 22.998189 -5.233310 12.869350 -32.287820 -12.321118 -3.545706 3.520723 -17.790928 2.991975 -6.230444 -91.077946 -49.920440 39.982402 -2.901412 3.802260 0.881500 -0.416170 0.647930 0.438200 3.851475 12.744565 8.404329 -12.192992 -32.883291 -1.355269 -14.406280 44.248026 -2.484595 2.218680 -2.002045 0.230450 0.124850 -0.456100 -0.053450 
2.099210 16.664180 -5.795640 7.554146 -63.572892 -25.968836 -15.582409 10.141346 7.466373 39.070441 -2.936274 -32.683124 -56.884385 31.864043 35.076143 2.090738 13.164963 0.221296 0.969290 0.760310 0.648520 18.448964 -9.404513 1.251688 -10.811419 -2.826612 21.409882 -4.342382 -6.959485 28.113518 -1.663624 -6.708761 2.160606 0.185540 -0.197810 0.430540 -2.713538 -2.309798 -9.173455 -15.115944 1.403858 46.139458 -10.258894 4.039030 4.303101 5.200627 -12.834004 -15.061013 -37.833405 25.829552 20.600141 -7.417680 13.411480 -31.153960 -10.632692 -3.156209 3.606216 -16.569740 3.357605 -5.883189 -98.586508 -48.434996 43.131309 -3.009163 3.838413 0.834560 -0.334130 0.591560 0.412560 1.543444 13.739020 8.499575 -14.287332 -29.102788 -0.645416 -6.763496 42.655303 -0.097942 2.126548 -2.071457 0.213640 0.111300 -0.403550 -0.067280 
2.159860 16.608580 -5.863580 8.025251 -66.475339 -26.156801 -15.599347 10.018900 7.629520 41.747041 -0.528741 -32.515053 -57.755950 32.058530 33.846788 2.068043 13.109775 0.229722 0.978420 0.780540 0.650390 18.508670 -9.366244 1.064382 -11.175709 -1.993514 19.795064 -4.315171 -6.844161 29.845294 -1.642435 -6.723206 2.148118 0.191920 -0.189600 0.471390 -2.548989 -2.322037 -9.198951 -16.486918 2.317269 45.723645 -10.147388 4.808691 5.497500 5.298938 -13.339159 -15.090414 -36.960837 25.253279 18.764912 -8.772550 13.495360 -32.510450 -9.660345 -3.218886 3.979580 -14.747529 4.504545 -5.534403 -107.350803 -45.857468 46.057690 -3.036150 3.891960 0.817820 -0.309240 0.602010 0.414100 0.325165 14.972190 8.407686 -18.470624 -25.913724 0.717479 3.109995 40.103534 2.450904 2.068407 -2.147703 0.237000 0.099800 -0.396530 -0.058500 
2.201170 16.577590 -5.911190 5.474223 -68.878579 -23.732079 -15.653357 9.911475 7.773119 44.472420 1.366446 -31.741349 -57.388262 31.755572 33.106055 2.026200 13.063272 0.236931 0.975620 0.788610 0.640820 18.511538 -9.320517 1.028472 -10.305509 -1.611996 18.676227 -4.150468 -6.744835 31.236928 -1.633715 -6.728603 2.152127 0.197160 -0.175370 0.473750 -2.655025 -2.068982 -9.234194 -15.966648 2.358436 46.614727 -10.261882 5.015937 5.025605 5.358023 -13.710612 -15.212277 -37.197396 24.765240 17.259946 -9.028090 12.921870 -33.288450 -9.153880 -3.543301 4.243478 -14.847131 4.758020 -5.590002 -107.619108 -44.702863 44.545566 -3.054015 3.876682 0.804530 -0.299560 0.597200 0.412130 -0.126960 15.855448 8.386950 -19.615592 -23.511564 0.692658 3.644776 38.518261 2.635685 2.053641 -2.092929 0.242050 0.119670 -0.383090 -0.048970 
2.231530 16.565840 -5.939770 3.396011 -70.853891 -20.776035 -15.698582 9.980216 7.819679 45.700286 2.686398 -30.663590 -56.668828 30.372882 31.154534 1.969261 12.886030 0.279747 0.944390 0.751760 0.618300 18.496224 -9.261200 0.967726 -9.464532 -1.017089 16.565989 -4.010371 -6.592148 32.796582 -1.599829 -6.638950 2.192120 0.160230 -0.173370 0.471270 -2.591121 -2.169705 -9.237218 -16.361252 2.510456 46.120594 -9.817101 4.804865 4.128926 5.876322 -13.789501 -15.712251 -37.910441 24.628934 16.908506 -9.632090 12.581030 -34.538780 -8.307678 -3.634086 4.771030 -18.411306 5.586499 -6.482271 -101.202655 -46.045637 40.948412 -3.054708 3.812008 0.819870 -0.313850 0.600740 0.401580 -1.588487 16.457810 8.545862 -17.802036 -20.993662 -0.723973 5.213999 40.009033 3.262102 2.011318 -2.012602 0.243540 0.131550 -0.359330 -0.044140 
